<svg width="32" height="32" viewBox="0 0 32 32" fill="none" xmlns="http://www.w3.org/2000/svg">
<g clip-path="url(#clip0_1031_1889)">
<path d="M16 32C24.8366 32 32 24.8366 32 16C32 7.16344 24.8366 0 16 0C7.16344 0 0 7.16344 0 16C0 24.8366 7.16344 32 16 32Z" fill="#FF4500"/>
<path d="M26.643 16.1529C26.643 14.8559 25.5941 13.8257 24.3158 13.8257C23.712 13.8249 23.1312 14.0573 22.6946 14.4744C21.0923 13.3297 18.8986 12.586 16.4571 12.4906L17.5251 7.49298L20.9967 8.23673C21.0351 9.11423 21.7597 9.8201 22.6565 9.8201C23.572 9.8201 24.3158 9.07635 24.3158 8.16035C24.3158 7.24485 23.5721 6.50098 22.6565 6.50098C22.008 6.50098 21.4355 6.88248 21.1685 7.43573L17.2965 6.61548C17.182 6.59623 17.0675 6.61548 16.9911 6.67273C16.8957 6.72998 16.8386 6.82523 16.8197 6.93973L15.6367 12.5095C13.1571 12.586 10.9252 13.3297 9.30397 14.4935C8.8673 14.0764 8.28644 13.8441 7.68259 13.845C6.38547 13.845 5.35547 14.8939 5.35547 16.1721C5.35547 17.1257 5.92759 17.9267 6.72897 18.2895C6.69005 18.5227 6.6709 18.7588 6.67172 18.9952C6.67172 22.581 10.8492 25.4997 15.9993 25.4997C21.1496 25.4997 25.3271 22.6002 25.3271 18.9952C25.3271 18.7588 25.308 18.5228 25.2698 18.2895C26.0708 17.9267 26.643 17.1065 26.643 16.1529ZM10.6582 17.8122C10.6582 16.8967 11.402 16.1529 12.318 16.1529C13.2335 16.1529 13.9773 16.8966 13.9773 17.8122C13.9773 18.7279 13.2336 19.472 12.318 19.472C11.4021 19.4907 10.6582 18.7279 10.6582 17.8122ZM19.9478 22.2186C18.8033 23.3632 16.6287 23.4396 15.9993 23.4396C15.3508 23.4396 13.1763 23.344 12.0506 22.2186C11.8792 22.047 11.8792 21.7799 12.0506 21.6082C12.2223 21.4369 12.4893 21.4369 12.6611 21.6082C13.3861 22.3332 14.9121 22.581 15.9993 22.581C17.0866 22.581 18.6316 22.3331 19.3373 21.6082C19.5091 21.4369 19.7761 21.4369 19.9478 21.6082C20.1003 21.7799 20.1003 22.047 19.9478 22.2186ZM19.6425 19.4909C18.7268 19.4909 17.9831 18.7471 17.9831 17.8315C17.9831 16.9159 18.7268 16.1721 19.6425 16.1721C20.5583 16.1721 21.3021 16.9159 21.3021 17.8315C21.3021 18.7277 20.5583 19.4909 19.6425 19.4909Z" fill="white"/>
</g>
<defs>
<clipPath id="clip0_1031_1889">
<rect width="32" height="32" fill="white"/>
</clipPath>
</defs>
</svg>
